P3
4 4
10
2 2 2 4 4 4 2 2 2 0 0 0 
4 4 4 10 10 10 8 8 8 1 1 1 
2 2 2 8 8 8 8 8 8 1 1 1 
0 0 0 1 1 1 1 1 1 0 0 0 