P3
4 4
19
0 1 2 0 1 2 0 1 2 0 0 0 
0 1 2 0 9 19 0 4 8 0 1 2 
0 1 2 0 4 8 0 9 19 0 1 2 
0 0 0 0 1 2 0 1 2 0 1 2 