P3
4 4
33
0 1 1 0 4 2 0 5 2 0 0 0 
0 4 2 0 28 13 0 22 9 0 7 3 
0 5 2 0 22 9 0 33 13 0 9 3 
0 0 0 0 7 3 0 9 3 0 5 2 