P3
4 4
18
1 1 1 5 5 5 4 4 4 0 0 0 
5 5 5 18 18 18 16 16 16 2 2 2 
4 4 4 16 16 16 13 13 13 1 1 1 
0 0 0 2 2 2 1 1 1 0 0 0 