P3
4 4
12
0 0 0 0 0 0 0 0 0 8 7 6 
0 0 0 12 11 8 0 0 0 0 0 0 
0 0 0 0 0 0 12 11 8 0 0 0 
8 7 6 0 0 0 0 0 0 0 0 0 