P3
4 4
12
0 0 0 0 0 0 0 0 0 6 6 6 
0 0 0 12 12 12 0 0 0 0 0 0 
0 0 0 0 0 0 12 12 12 0 0 0 
6 6 6 0 0 0 0 0 0 0 0 0 