P3
10 6
205
87 62 66 177 115 76 168 117 98 45 70 41 64 120 57 25 33 52 36 36 86 61 118 50 37 62 40 0 8 13 
136 72 37 178 99 86 205 141 117 163 134 104 89 75 101 2 0 64 0 0 52 59 35 83 65 90 61 21 40 44 
135 62 19 187 113 76 205 155 101 144 98 111 0 0 66 0 0 18 0 0 0 0 0 30 35 52 46 18 35 25 
93 27 3 182 106 54 205 171 115 143 108 132 0 0 54 0 0 21 0 0 0 0 0 17 11 21 46 32 51 21 
53 0 0 114 43 39 183 117 95 119 83 59 0 0 8 0 0 60 0 0 70 0 0 67 0 10 24 26 47 6 
27 26 40 14 2 16 41 26 7 2 0 0 0 0 0 0 0 47 0 0 67 0 0 40 15 34 12 13 33 6 