P3
10 6
182
116 116 116 126 126 126 148 148 148 91 91 91 107 107 107 102 102 102 136 136 136 100 100 100 90 90 90 63 63 63 
87 87 87 136 136 136 167 167 167 154 154 154 151 151 151 114 114 114 102 102 102 133 133 133 111 111 111 94 94 94 
69 69 69 126 126 126 151 151 151 161 161 161 116 116 116 68 68 68 13 13 13 80 80 80 96 96 96 75 75 75 
53 53 53 104 104 104 165 165 165 182 182 182 104 104 104 71 71 71 20 20 20 67 67 67 96 96 96 71 71 71 
44 44 44 89 89 89 145 145 145 109 109 109 58 58 58 110 110 110 120 120 120 117 117 117 74 74 74 56 56 56 
90 90 90 66 66 66 57 57 57 9 9 9 36 36 36 97 97 97 117 117 117 90 90 90 62 62 62 56 56 56 