P3
10 6
105
0 0 0 77 15 0 68 17 0 0 0 0 0 20 0 0 0 0 0 0 0 0 18 0 0 0 0 0 0 0 
36 0 0 78 0 0 105 41 17 63 34 4 0 0 1 0 0 0 0 0 0 0 0 0 0 0 0 0 0 0 
35 0 0 87 13 0 105 55 1 44 0 11 0 0 0 0 0 0 0 0 0 0 0 0 0 0 0 0 0 0 
0 0 0 82 6 0 105 71 15 43 8 32 0 0 0 0 0 0 0 0 0 0 0 0 0 0 0 0 0 0 
0 0 0 14 0 0 83 17 0 19 0 0 0 0 0 0 0 0 0 0 0 0 0 0 0 0 0 0 0 0 
0 0 0 0 0 0 0 0 0 0 0 0 0 0 0 0 0 0 0 0 0 0 0 0 0 0 0 0 0 0 