P3
10 6
255
237 212 216 255 255 226 255 255 248 195 220 191 214 255 207 175 183 202 186 186 236 211 255 200 187 212 190 137 158 163 
255 222 187 255 249 236 255 255 255 255 255 254 239 225 251 152 121 214 149 115 202 209 185 233 215 240 211 171 190 194 
255 212 169 255 255 226 255 255 251 255 248 255 142 106 216 112 100 168 107 100 113 135 109 180 185 202 196 168 185 175 
243 177 153 255 255 204 255 255 255 255 255 255 125 105 204 124 113 171 104 101 120 103 103 167 161 171 196 182 201 171 
203 150 144 255 193 189 255 255 245 255 233 209 147 121 158 138 100 210 133 100 220 139 105 217 148 160 174 176 197 156 
177 176 190 164 152 166 191 176 157 152 141 109 128 116 136 132 109 197 150 118 217 150 111 190 165 184 162 163 183 156 