P3
10 6
255
137 112 116 227 165 126 218 167 148 95 120 91 114 170 107 75 83 102 86 86 136 111 168 100 87 112 90 37 58 63 
186 122 87 228 149 136 255 191 167 213 184 154 139 125 151 52 21 114 49 15 102 109 85 133 115 140 111 71 90 94 
185 112 69 237 163 126 255 205 151 194 148 161 42 6 116 12 0 68 7 0 13 35 9 80 85 102 96 68 85 75 
143 77 53 232 156 104 255 221 165 193 158 182 25 5 104 24 13 71 4 1 20 3 3 67 61 71 96 82 101 71 
103 50 44 164 93 89 233 167 145 169 133 109 47 21 58 38 0 110 33 0 120 39 5 117 48 60 74 76 97 56 
77 76 90 64 52 66 91 76 57 52 41 9 28 16 36 32 9 97 50 18 117 50 11 90 65 84 62 63 83 56 
