P3
10 6
255
137 137 137 227 227 227 218 218 218 95 95 95 114 114 114 75 75 75 86 86 86 111 111 111 87 87 87 37 37 37 
186 186 186 228 228 228 255 255 255 213 213 213 139 139 139 52 52 52 49 49 49 109 109 109 115 115 115 71 71 71 
185 185 185 237 237 237 255 255 255 194 194 194 42 42 42 12 12 12 7 7 7 35 35 35 85 85 85 68 68 68 
143 143 143 232 232 232 255 255 255 193 193 193 25 25 25 24 24 24 4 4 4 3 3 3 61 61 61 82 82 82 
103 103 103 164 164 164 233 233 233 169 169 169 47 47 47 38 38 38 33 33 33 39 39 39 48 48 48 76 76 76 
77 77 77 64 64 64 91 91 91 52 52 52 28 28 28 32 32 32 50 50 50 50 50 50 65 65 65 63 63 63 