P3
10 6
255
187 162 166 255 215 176 255 217 198 145 170 141 164 220 157 125 133 152 136 136 186 161 218 150 137 162 140 87 108 113 
236 172 137 255 199 186 255 241 217 255 234 204 189 175 201 102 71 164 99 65 152 159 135 183 165 190 161 121 140 144 
235 162 119 255 213 176 255 255 201 244 198 211 92 56 166 62 50 118 57 50 63 85 59 130 135 152 146 118 135 125 
193 127 103 255 206 154 255 255 215 243 208 232 75 55 154 74 63 121 54 51 70 53 53 117 111 121 146 132 151 121 
153 100 94 214 143 139 255 217 195 219 183 159 97 71 108 88 50 160 83 50 170 89 55 167 98 110 124 126 147 106 
127 126 140 114 102 116 141 126 107 102 91 59 78 66 86 82 59 147 100 68 167 100 61 140 115 134 112 113 133 106 