P3
10 6
255
255 255 255 255 255 255 255 255 255 245 255 241 255 255 255 225 233 252 236 236 255 255 255 250 237 255 240 187 208 213 
255 255 237 255 255 255 255 255 255 255 255 255 255 255 255 202 171 255 199 165 252 255 235 255 255 255 255 221 240 244 
255 255 219 255 255 255 255 255 255 255 255 255 192 156 255 162 150 218 157 150 163 185 159 230 235 252 246 218 235 225 
255 227 203 255 255 254 255 255 255 255 255 255 175 155 254 174 163 221 154 151 170 153 153 217 211 221 246 232 251 221 
253 200 194 255 243 239 255 255 255 255 255 255 197 171 208 188 150 255 183 150 255 189 155 255 198 210 224 226 247 206 
227 226 240 214 202 216 241 226 207 202 191 159 178 166 186 182 159 247 200 168 255 200 161 240 215 234 212 213 233 206 