P3
10 6
221
112 112 112 165 165 165 167 167 167 120 120 120 170 170 170 83 83 83 86 86 86 168 168 168 112 112 112 58 58 58 
122 122 122 149 149 149 191 191 191 184 184 184 125 125 125 21 21 21 15 15 15 85 85 85 140 140 140 90 90 90 
112 112 112 163 163 163 205 205 205 148 148 148 6 6 6 0 0 0 0 0 0 9 9 9 102 102 102 85 85 85 
77 77 77 156 156 156 221 221 221 158 158 158 5 5 5 13 13 13 1 1 1 3 3 3 71 71 71 101 101 101 
50 50 50 93 93 93 167 167 167 133 133 133 21 21 21 0 0 0 0 0 0 5 5 5 60 60 60 97 97 97 
76 76 76 52 52 52 76 76 76 41 41 41 16 16 16 9 9 9 18 18 18 11 11 11 84 84 84 83 83 83 